<svg fill="none" height="24" viewBox="0 0 24 24" width="24" xmlns="http://www.w3.org/2000/svg"><g stroke="#141b34" stroke-linejoin="round"><path d="m22 11.5667c0 5.2832-4.4778 9.5667-10 9.5667-.6493.0009-1.2968-.0592-1.9346-.1789-.45907-.0863-.68862-.1294-.84887-.1049-.16026.0245-.38735.1452-.84154.3868-1.28485.6833-2.78304.9246-4.22388.6566.54763-.6736.92164-1.4818 1.08667-2.3482.1-.53-.14778-1.0448-.51889-1.4217-1.68556-1.7116-2.71889-4.018-2.71889-6.5564 0-5.28313 4.47778-9.5667 10-9.5667 5.5222 0 10 4.28357 10 9.5667z" stroke-width="1.5"/><path d="m11.9955 12h.009m3.9865 0h.009m-8 0h.00897" stroke-linecap="round" stroke-width="2"/></g></svg>