<svg height="24" viewBox="0 0 24 24" width="24" xmlns="http://www.w3.org/2000/svg"><g fill="#000" fill-rule="nonzero"><path d="m10 4.5c0 .27614237-.22385763.5-.5.5s-.5-.22385763-.5-.5c0-.82842712.67157288-1.5 1.5-1.5h3c.8284271 0 1.5.67157288 1.5 1.5 0 .27614237-.2238576.5-.5.5s-.5-.22385763-.5-.5-.2238576-.5-.5-.5h-3c-.2761424 0-.5.22385763-.5.5zm-2.5-.5c.27614237 0 .5.22385763.5.5s-.22385763.5-.5.5c-.82842712 0-1.5.67157288-1.5 1.5v12c0 .8284271.67157288 1.5 1.5 1.5h9c.8284271 0 1.5-.6715729 1.5-1.5v-12c0-.82842712-.6715729-1.5-1.5-1.5-.2761424 0-.5-.22385763-.5-.5s.2238576-.5.5-.5c1.3807119 0 2.5 1.11928813 2.5 2.5v12c0 1.3807119-1.1192881 2.5-2.5 2.5h-9c-1.38071187 0-2.5-1.1192881-2.5-2.5v-12c0-1.38071187 1.11928813-2.5 2.5-2.5z"/><path d="m8.5 10c-.27614237 0-.5-.22385763-.5-.5s.22385763-.5.5-.5h7c.2761424 0 .5.22385763.5.5s-.2238576.5-.5.5zm0 3c-.27614237 0-.5-.2238576-.5-.5s.22385763-.5.5-.5h7c.2761424 0 .5.2238576.5.5s-.2238576.5-.5.5zm0 3c-.27614237 0-.5-.2238576-.5-.5s.22385763-.5.5-.5h5c.2761424 0 .5.2238576.5.5s-.2238576.5-.5.5z"/></g></svg>