<svg fill="none" height="24" viewBox="0 0 24 24" width="24" xmlns="http://www.w3.org/2000/svg"><g stroke="#fff" stroke-linejoin="round" stroke-width="2"><path d="m12.0003 8.5c0 1.38071-1.1193 2.5-2.50004 2.5-1.38071 0-2.5-1.11929-2.5-2.5 0 1.38071-1.11929 2.5-2.5 2.5-.17167 0-.33929-.0232-.50026-.0667m16.5-4.4333-.9803-2.28772c-.3151-.73543-1.0382-1.21228-1.8383-1.21228h-11.44507c-.75755 0-1.45008.42801-1.78886 1.10557l-1.82009 3.64018c-.08464.16929-.16279.3433-.20091.52869-.25034 1.21736.51884 2.37396 1.57353 2.65886m0 0v10.0667h2" stroke-linecap="round"/><path d="m14.2218 14.2218 4.5564 4.5564m-4.5564-4.5564-2.2781 2.2782c-1.2583 1.2582-1.2583 3.2981 0 4.5563 1.2582 1.2582 3.2981 1.2582 4.5563 0l2.2782-2.2781m-4.5564-4.5564 2.2782-2.2781c1.2582-1.2583 3.2981-1.2583 4.5563 0 1.2582 1.2582 1.2582 3.2981 0 4.5563l-2.2781 2.2782" opacity=".4"/></g></svg>